<?xml version="1.0" standalone="no"?><!DOCTYPE svg PUBLIC "-//W3C//DTD SVG 1.1//EN" "http://www.w3.org/Graphics/SVG/1.1/DTD/svg11.dtd"><svg t="1745927588365" class="icon" viewBox="0 0 3200 1024" version="1.1" xmlns="http://www.w3.org/2000/svg" p-id="5672" xmlns:xlink="http://www.w3.org/1999/xlink" width="625" height="200"><path d="M921.6 736l41.6-307.2h57.6l6.4-57.6h-57.6l16-83.2h-112l16 19.2-9.6 64h-57.6l-6.4 57.6h57.6L828.8 736h92.8z m150.4 0l35.2-147.2 28.8 41.6-57.6 105.6h92.8l16-28.8 19.2 28.8h99.2l-76.8-108.8 67.2-124.8 6.4-57.6h-38.4l38.4-83.2 9.6-60.8h-275.2l-9.6 57.6h41.6L985.6 736h86.4z m105.6-188.8l-32-48h-19.2l32-140.8h51.2l-54.4 140.8h44.8l-22.4 48z m-364.8 166.4l48-265.6h-44.8L768 713.6h44.8z m169.6-35.2l32-230.4h-44.8l-32 230.4h44.8z m720-284.8l19.2-32 16 32h92.8l-19.2-35.2h57.6l-32-48h-89.6l19.2-22.4h-105.6l-9.6 16-51.2 89.6h102.4z m-243.2 0l19.2-32 16 32h92.8l-19.2-35.2h48l-28.8-48h-80l12.8-22.4h-105.6l-9.6 16-51.2 89.6h105.6zM1753.6 736c12.8 0 22.4-3.2 32-9.6 9.6-6.4 12.8-12.8 16-22.4l41.6-294.4H1417.6l-35.2-12.8-9.6 60.8H1728l-32 233.6-51.2 44.8h108.8z m-320 0l35.2-259.2h-105.6l-32 259.2h102.4z m249.6-60.8l25.6-188.8h-224l-25.6 188.8h224z m-80-121.6H1568l3.2-28.8h35.2l-3.2 28.8z m-6.4 76.8h-35.2l3.2-28.8H1600l-3.2 28.8zM1977.6 736l28.8-169.6h28.8l-28.8 169.6h80l41.6-236.8h-108.8l6.4-35.2H2144l12.8-57.6h-19.2l12.8-92.8-70.4-12.8-16 108.8h-28.8l19.2-108.8h-108.8l16 22.4L1884.8 736h92.8z m220.8 0l48-265.6h99.2l-6.4 51.2-19.2 35.2-12.8-38.4 3.2-16h-64L2240 544l28.8 80-64 112h73.6l35.2-64 28.8 64h73.6L2368 601.6l44.8-76.8 16-112h-169.6l9.6-54.4 172.8-9.6 6.4-57.6-249.6 9.6L2118.4 736h80z" p-id="5673"></path></svg>